<?xml version="1.0" standalone="no"?>
<!DOCTYPE svg PUBLIC "-//W3C//DTD SVG 20010904//EN"
 "http://www.w3.org/TR/2001/REC-SVG-20010904/DTD/svg10.dtd">
<svg version="1.0" xmlns="http://www.w3.org/2000/svg"
 width="1024.000000pt" height="1024.000000pt" viewBox="0 0 1024.000000 1024.000000"
 preserveAspectRatio="xMidYMid meet">
<metadata>
Created by potrace 1.14, written by Peter Selinger 2001-2017
</metadata>
<g transform="translate(0.000000,1024.000000) scale(0.100000,-0.100000)"
fill="#000000" stroke="none">
<path d="M5048 9358 c-2 -24 -8 -33 -21 -33 -10 0 -21 -5 -25 -11 -12 -18 -62
-26 -78 -13 -11 9 -18 9 -26 1 -6 -6 -17 -8 -24 -5 -8 3 -20 1 -27 -4 -21 -18
-59 -22 -78 -10 -15 9 -24 8 -46 -6 -16 -10 -47 -27 -70 -38 -38 -19 -79 -70
-66 -82 2 -3 27 10 55 29 27 19 54 32 58 29 5 -3 14 3 20 14 8 16 20 20 58 20
62 -2 105 -17 98 -36 -4 -8 -6 -19 -6 -24 0 -5 -7 -9 -15 -9 -8 0 -15 5 -15
10 0 6 -10 10 -23 10 -13 0 -28 5 -34 11 -15 15 -45 -14 -63 -59 -11 -27 -17
-32 -35 -28 -20 5 -24 1 -30 -30 -3 -20 -4 -38 -1 -41 9 -9 26 8 26 27 0 10 5
22 11 25 7 5 9 -9 7 -42 -3 -40 -6 -48 -23 -48 -15 0 -24 12 -36 50 -18 53
-31 64 -54 45 -18 -15 -35 -5 -35 21 0 10 -2 19 -5 19 -15 0 -85 -34 -85 -41
0 -5 -6 -9 -13 -9 -18 0 -41 41 -38 67 1 11 -3 24 -8 28 -6 3 -11 0 -11 -8 0
-31 -33 -116 -48 -122 -17 -6 -61 20 -64 38 0 6 -2 17 -2 23 -1 6 -7 19 -15
28 -11 13 -11 19 -1 31 7 9 8 15 2 15 -5 0 -17 -11 -26 -25 -9 -14 -26 -25
-39 -25 -12 0 -31 -7 -41 -15 -18 -14 -18 -16 -3 -33 9 -10 17 -23 17 -29 0
-6 7 -14 16 -17 10 -4 15 -16 14 -33 -4 -51 -1 -56 24 -51 16 3 27 0 31 -10 8
-21 -4 -52 -21 -52 -18 0 -18 -4 2 -69 11 -38 12 -57 5 -64 -8 -8 -14 -8 -23
1 -18 18 -38 15 -58 -10 l-18 -23 -11 28 c-6 16 -11 44 -11 64 0 66 -64 163
-107 163 -15 0 -31 -13 -49 -40 -24 -37 -30 -40 -59 -34 -26 5 -34 1 -48 -19
-23 -35 -31 -75 -19 -90 6 -6 10 -23 10 -37 0 -14 4 -38 8 -54 l7 -28 -26 16
c-36 24 -51 67 -42 122 6 41 5 45 -12 42 -14 -2 -19 -14 -21 -56 -3 -45 -6
-52 -20 -48 -24 8 -39 -4 -56 -46 -9 -22 -24 -38 -38 -41 -13 -4 -31 -20 -41
-37 -10 -16 -27 -35 -38 -40 -10 -6 -19 -18 -19 -27 0 -10 -13 -31 -29 -48
-16 -16 -48 -65 -70 -109 -22 -43 -46 -86 -54 -95 -8 -9 -18 -27 -22 -39 -4
-13 -21 -44 -38 -70 -17 -25 -51 -97 -75 -161 l-45 -116 0 -180 c0 -173 12
-324 34 -430 12 -62 21 -101 53 -235 28 -118 32 -138 50 -265 18 -120 27 -142
68 -150 40 -9 138 -63 138 -76 0 -5 8 -13 18 -16 9 -4 29 -15 43 -26 21 -15
31 -17 47 -8 11 6 30 11 41 11 12 0 21 6 21 14 0 21 14 27 68 30 29 2 56 -3
71 -12 22 -15 24 -14 40 7 16 21 20 22 39 10 18 -12 24 -11 44 8 13 12 35 22
51 22 15 1 39 1 55 2 15 0 32 5 38 10 7 5 43 12 80 15 81 6 269 22 404 34 119
12 447 33 520 34 l55 1 -2 -55 c-1 -30 -2 -74 -3 -97 0 -29 -6 -46 -18 -53
-46 -26 -55 -39 -42 -55 7 -8 27 -15 45 -15 30 0 34 -4 49 -47 9 -26 16 -55
16 -65 0 -61 72 -237 119 -291 34 -38 143 -107 170 -107 9 0 21 -4 27 -9 5 -5
23 -11 39 -13 17 -2 29 -8 28 -15 -2 -8 7 -13 20 -13 13 0 38 -11 57 -25 19
-14 40 -25 47 -25 7 0 17 -8 22 -19 11 -19 42 -28 138 -37 60 -7 63 -10 79
-122 6 -35 3 -46 -13 -62 -13 -12 -23 -38 -27 -74 -4 -30 -16 -66 -27 -80 -10
-13 -19 -29 -19 -34 0 -6 -13 -38 -29 -72 -22 -46 -28 -71 -24 -98 9 -64 5
-112 -10 -135 -24 -37 -67 -152 -67 -180 0 -14 -4 -29 -10 -32 -16 -10 -11
-58 10 -93 36 -59 101 -68 153 -22 42 37 63 37 152 4 168 -64 200 -73 236 -68
22 4 39 2 43 -5 4 -6 18 -11 30 -11 14 0 30 -10 40 -25 28 -43 73 -59 201 -71
68 -6 127 -7 137 -3 9 5 30 9 47 9 39 0 42 -27 6 -58 -32 -28 -36 -92 -6 -92
10 0 29 -8 41 -18 20 -16 22 -24 16 -64 -4 -26 -13 -49 -21 -52 -8 -3 -17 -21
-21 -40 -6 -36 -19 -47 -27 -23 -3 11 -33 2 -66 -20 -2 -1 2 -9 9 -18 7 -8 9
-15 4 -16 -5 -1 -18 -2 -29 -3 -25 -1 -41 -70 -24 -102 8 -16 8 -27 -1 -43 -6
-13 -9 -36 -5 -54 6 -26 5 -30 -6 -19 -19 18 -29 15 -29 -8 0 -12 7 -20 16
-20 9 0 14 -7 12 -18 -2 -10 -12 -16 -23 -15 -10 1 -25 -6 -32 -15 -10 -14
-12 -9 -6 33 3 28 10 52 15 53 16 7 7 41 -13 47 -30 10 -41 -6 -47 -65 -4 -49
-6 -51 -29 -45 -26 6 -70 -16 -86 -42 -10 -17 -26 -8 -37 22 -8 22 -64 44 -77
31 -4 -3 -1 -24 6 -47 15 -49 10 -57 -29 -42 -23 9 -30 8 -34 -3 -6 -16 -36
-19 -36 -3 0 23 21 48 35 43 12 -5 15 2 15 31 0 36 -1 37 -18 22 -13 -12 -21
-14 -29 -6 -15 15 -27 -8 -25 -48 2 -18 -2 -33 -8 -33 -16 0 -12 -31 6 -51 12
-13 15 -28 10 -54 -6 -30 -11 -36 -29 -33 -20 3 -22 10 -27 81 -5 72 -22 106
-28 55 -5 -47 -23 -98 -32 -93 -6 4 -10 32 -10 64 0 35 -6 65 -15 77 -19 25
-19 43 1 65 13 14 13 20 2 38 -15 25 -26 27 -34 6 -4 -8 -12 -15 -20 -15 -17
0 -18 -12 -3 -27 7 -7 6 -12 -6 -17 -11 -4 -29 7 -56 34 -47 48 -59 50 -59 11
0 -32 -38 -65 -64 -55 -9 3 -16 1 -16 -6 0 -6 -10 -10 -22 -8 -18 2 -24 11
-26 35 -2 18 -7 33 -13 33 -15 0 -10 36 6 50 22 18 19 27 -12 33 -30 6 -54 -7
-49 -26 1 -7 1 -9 -1 -4 -3 4 -15 7 -28 7 -13 0 -27 5 -30 10 -9 15 -27 1 -21
-16 8 -20 -24 -31 -35 -13 -8 11 -17 6 -43 -25 -19 -22 -38 -36 -45 -32 -16
10 -14 26 5 26 8 0 12 5 9 11 -5 7 -12 5 -23 -4 -17 -15 -87 -47 -103 -47 -5
0 -9 9 -9 19 0 36 -13 52 -61 76 -60 31 -81 31 -144 0 -27 -14 -62 -25 -77
-25 -36 0 -84 -41 -75 -64 5 -12 13 -15 27 -11 13 4 33 -2 54 -15 19 -11 49
-23 67 -25 17 -2 44 -15 58 -29 15 -15 34 -26 43 -26 9 0 18 -7 22 -15 3 -8
16 -15 28 -15 13 -1 34 -7 48 -15 37 -21 77 -19 90 5 18 33 67 19 83 -24 7
-19 38 -19 81 -1 16 7 18 5 14 -12 -5 -18 0 -21 40 -27 24 -3 62 -6 83 -6 25
0 47 -8 67 -25 17 -14 33 -25 36 -25 4 0 24 -11 44 -25 20 -14 47 -25 59 -25
12 0 25 -5 28 -10 9 -14 42 -12 48 3 4 9 8 9 14 0 4 -6 36 -15 71 -19 34 -3
65 -11 68 -16 3 -4 13 1 22 12 16 19 23 19 134 10 189 -14 266 0 323 59 l29
31 -22 16 c-20 14 -21 17 -8 42 8 15 29 42 48 61 28 29 33 41 33 82 0 41 3 49
18 49 35 0 56 40 57 103 0 49 3 60 19 64 12 3 28 27 42 64 13 32 29 59 36 59
7 0 20 15 29 33 9 17 21 35 26 38 11 7 14 28 23 144 5 56 13 89 27 108 11 16
24 58 29 95 8 54 6 75 -8 114 -9 26 -14 50 -11 54 13 12 47 -17 59 -51 16 -43
34 -45 48 -4 17 49 13 103 -9 132 -11 14 -20 34 -20 45 0 21 -26 37 -35 22
-12 -20 -31 -9 -53 30 -12 22 -27 40 -32 40 -6 0 -10 15 -10 33 0 18 -5 38
-11 44 -11 11 -14 146 -4 163 12 20 27 9 22 -16 -5 -27 17 -58 37 -51 6 2 17
16 24 30 27 56 51 20 34 -52 -10 -43 -9 -48 14 -72 13 -14 24 -29 24 -35 0 -5
7 -20 16 -32 14 -20 17 -21 37 -7 36 25 66 136 72 263 3 61 2 112 -3 112 -5 0
-18 -11 -30 -25 -22 -26 -46 -32 -57 -16 -3 5 -10 45 -15 87 -6 43 -14 82 -19
87 -4 4 -22 -3 -39 -17 -16 -14 -38 -26 -47 -26 -10 0 -32 -8 -49 -19 -17 -10
-67 -29 -111 -41 -44 -12 -102 -29 -128 -37 -30 -9 -52 -11 -60 -6 -30 24
-128 55 -152 49 -19 -5 -25 -2 -25 9 0 9 7 15 17 13 21 -4 30 31 11 43 -21 14
-92 10 -131 -6 -50 -21 -83 -19 -126 7 -53 31 -61 46 -61 112 0 64 3 71 61
157 57 86 79 128 79 155 0 15 6 24 15 24 8 0 15 6 15 14 0 7 17 33 38 57 157
185 196 265 232 478 11 62 25 120 31 127 14 18 85 17 115 -1 11 -7 26 -33 33
-56 7 -24 23 -66 36 -94 32 -70 52 -143 70 -265 16 -103 40 -166 108 -285 12
-22 34 -60 47 -83 14 -24 43 -56 66 -72 37 -25 44 -27 62 -14 11 7 29 34 41
59 20 42 24 45 59 44 20 0 64 -5 97 -10 127 -19 151 -19 224 -3 63 14 80 22
120 61 25 24 58 51 72 58 57 30 145 172 203 325 13 36 34 90 46 120 14 34 24
90 29 149 7 91 6 96 -32 205 -22 61 -44 128 -50 150 -7 22 -25 48 -42 61 -40
31 -144 65 -195 65 -41 0 -41 1 -35 29 4 20 2 30 -9 34 -8 3 -16 1 -19 -6 -2
-8 -46 -8 -173 1 -93 7 -242 12 -332 12 -159 0 -163 0 -171 23 -7 15 -5 25 5
33 24 19 16 24 -43 24 -44 0 -62 -5 -79 -21 -21 -20 -30 -21 -98 -14 -42 4
-76 11 -76 16 0 4 -10 13 -21 20 -18 9 -24 8 -31 -5 -6 -11 -16 -15 -29 -11
-13 4 -28 0 -38 -9 -10 -9 -42 -19 -71 -23 -43 -5 -55 -3 -66 11 -8 11 -14 13
-19 7 -8 -14 -55 -14 -55 -1 0 6 5 10 10 10 6 0 10 5 10 11 0 5 -5 7 -10 4 -6
-4 -25 1 -43 10 -34 18 -118 42 -177 51 -19 3 -54 12 -77 21 -29 10 -54 13
-80 8 -21 -4 -139 -9 -263 -10 -215 -4 -228 -5 -287 -29 -35 -14 -70 -26 -78
-26 -8 0 -32 -11 -53 -24 -20 -13 -53 -29 -73 -35 -41 -13 -129 -96 -129 -121
0 -9 -16 -31 -35 -50 -40 -39 -46 -70 -14 -70 16 0 19 -4 14 -17 -17 -42 -17
-53 -1 -53 10 0 14 -5 11 -11 -4 -6 -14 -8 -22 -5 -8 3 -27 -1 -43 -9 -16 -8
-49 -15 -73 -15 -25 0 -64 -7 -87 -15 -23 -8 -63 -15 -89 -15 -43 0 -185 -16
-344 -40 -37 -5 -107 -10 -155 -10 -48 0 -114 -5 -147 -10 -33 -5 -97 -7 -143
-3 -74 5 -85 9 -99 30 -13 20 -14 26 -3 33 8 5 11 17 7 31 -4 14 1 33 14 50
16 23 18 32 9 49 -9 17 -8 27 4 45 9 14 16 31 16 39 0 20 -21 31 -30 16 -5 -8
-10 -9 -14 -2 -3 6 -2 13 4 17 5 3 10 14 10 24 0 10 7 24 15 31 8 7 15 21 15
32 0 22 28 68 42 68 15 0 -2 -81 -23 -112 -27 -38 -24 -56 6 -28 14 13 25 29
25 36 0 6 11 19 25 28 16 10 25 26 25 41 0 14 5 25 10 25 6 0 10 -4 10 -10 0
-5 5 -10 10 -10 6 0 10 7 10 15 0 8 6 24 12 35 10 16 10 24 0 40 -6 11 -12 28
-13 37 0 11 -3 13 -6 6 -4 -12 -43 -19 -43 -8 0 3 9 22 20 42 13 24 16 41 10
47 -5 5 -11 8 -12 5 -2 -2 -13 -18 -25 -36 -13 -18 -20 -39 -17 -47 3 -9 1
-16 -5 -16 -17 0 -13 47 9 92 25 53 35 104 21 112 -6 4 -11 15 -10 24 0 11 3
12 6 5 7 -19 27 -16 48 7 14 15 16 29 11 60 -5 32 -3 40 9 40 30 0 14 -129
-17 -137 -10 -3 -18 -12 -18 -20 0 -11 7 -14 21 -10 12 3 22 0 25 -9 15 -51
13 -49 35 -27 13 12 22 35 23 59 1 22 4 44 7 49 4 6 9 22 13 38 9 37 26 34 26
-4 0 -20 4 -29 13 -26 6 2 12 18 12 35 0 17 6 37 13 43 6 7 12 19 12 25 0 7 7
19 15 28 14 13 19 53 14 99 -1 10 15 70 36 135 61 186 101 260 126 235 19 -19
29 -16 29 7 0 13 10 24 25 30 17 7 25 17 25 34 0 29 43 62 57 43 30 -42 53
-133 56 -225 1 -34 6 -62 12 -63 5 0 27 -27 48 -60 21 -32 43 -59 49 -59 6 0
26 -17 45 -37 32 -36 35 -37 47 -20 13 17 15 17 42 -9 l29 -26 5 33 c6 41 22
47 50 19 18 -18 30 -21 59 -16 31 5 43 1 72 -23 31 -26 39 -28 94 -24 33 2 99
18 147 35 95 33 132 32 143 -3 11 -34 56 -24 285 61 46 17 90 35 96 41 8 7 14
7 19 -1 3 -5 17 -10 30 -10 28 0 59 -46 69 -101 6 -35 35 -59 72 -59 8 0 55
28 105 61 68 47 93 59 102 50 6 -6 21 -11 34 -11 20 0 22 3 12 18 -9 15 -7 23
14 46 29 31 57 29 57 -4 0 -11 5 -20 10 -20 6 0 10 13 10 29 0 51 55 49 62 -2
2 -12 6 -20 9 -17 4 3 16 -4 28 -14 15 -14 19 -26 14 -44 -4 -18 -2 -23 8 -20
8 2 15 19 17 36 3 26 8 32 28 32 16 0 28 -8 35 -23 10 -22 16 -23 62 -19 29 2
59 8 68 13 8 4 22 3 30 -2 20 -13 29 -11 29 6 0 19 9 19 34 0 17 -13 22 -13
38 1 14 14 20 14 33 4 13 -11 15 -8 15 19 0 19 -5 31 -13 31 -25 0 -46 33 -40
62 3 15 9 25 15 22 5 -3 15 0 23 6 26 21 67 -5 93 -58 12 -26 31 -60 42 -77
10 -16 19 -48 19 -70 1 -55 46 -111 80 -100 12 3 26 18 31 31 6 16 17 24 33
24 13 0 28 5 35 12 7 7 27 12 45 13 31 0 32 1 32 46 0 31 7 54 23 73 12 16 27
46 33 68 7 28 14 38 25 34 16 -6 20 29 4 39 -22 14 30 81 56 71 28 -11 7 -114
-30 -146 -9 -7 -16 -22 -16 -33 0 -18 2 -18 26 7 15 14 35 26 45 26 19 0 35
33 24 50 -4 6 -1 17 5 25 6 8 8 20 4 27 -11 18 -14 88 -3 88 5 0 9 -8 9 -18 0
-14 12 -21 45 -29 l45 -10 0 33 c0 27 -4 34 -20 34 -11 0 -28 4 -38 10 -9 5
-30 15 -45 20 -16 6 -31 20 -34 31 -4 14 -12 19 -24 16 -21 -6 -22 -2 -23 63
-1 43 -2 45 -30 45 -28 0 -39 10 -50 47 -7 24 -60 9 -64 -18 -3 -21 -40 -50
-50 -39 -3 3 0 20 8 38 7 18 14 51 15 73 2 42 38 102 61 103 13 1 27 31 19 39
-3 4 -17 -6 -31 -22 -14 -15 -37 -31 -50 -36 -16 -7 -24 -17 -24 -34 0 -14 -5
-28 -10 -31 -7 -4 -7 -12 0 -25 14 -26 13 -63 -2 -58 -7 3 -15 15 -18 29 -4
15 -14 25 -29 27 -23 4 -24 2 -17 -40 4 -23 10 -63 13 -88 3 -25 12 -53 20
-62 8 -9 12 -25 9 -35 -3 -11 3 -38 14 -61 27 -56 25 -77 -12 -117 -25 -27
-38 -34 -55 -29 -15 4 -23 14 -23 27 0 31 -30 106 -60 152 -27 42 -60 137 -60
174 0 13 -7 37 -15 55 -14 29 -14 36 0 67 25 59 50 81 81 73 23 -6 26 -4 21
10 -4 10 -7 26 -7 36 0 11 -10 20 -24 24 -14 3 -27 14 -30 24 -3 9 -19 25 -36
34 -28 16 -30 16 -30 -1 0 -23 -9 -31 -26 -24 -10 4 -13 15 -8 38 5 29 1 38
-35 76 -41 42 -41 42 -22 60 27 25 31 24 69 -11 18 -16 35 -30 38 -30 2 0 4
13 4 30 0 21 -8 35 -26 46 -23 15 -24 19 -10 32 14 14 17 14 34 -1 18 -17 42
-23 42 -11 0 3 -17 26 -37 51 -28 34 -37 53 -34 76 2 24 0 27 -11 18 -64 -55
-72 -59 -83 -41 -15 25 -25 5 -25 -50 0 -47 -3 -60 -15 -60 -8 0 -15 5 -15 10
0 6 -8 10 -17 10 -10 0 -38 16 -61 35 -24 19 -53 37 -64 41 -18 5 -18 6 -2 19
15 10 16 16 6 28 -7 8 -10 21 -7 29 3 8 -4 23 -16 33 -18 18 -22 18 -32 5 -7
-9 -19 -14 -27 -13 -8 2 -21 -1 -29 -6 -11 -7 -9 -13 8 -30 21 -21 21 -22 4
-45 -16 -21 -18 -22 -21 -6 -2 10 -12 26 -23 36 -15 14 -24 15 -43 6 -25 -11
-66 -6 -66 8 0 5 6 11 13 14 8 3 5 11 -12 25 -25 22 -51 28 -51 11 0 -7 -6 -7
-17 -2 -30 15 -111 23 -119 11 -4 -7 -22 -9 -46 -5 -35 6 -43 3 -64 -19 -13
-14 -27 -44 -30 -66 -7 -43 -20 -57 -36 -41 -8 8 -6 18 6 36 21 33 21 33 -20
38 -39 5 -56 -9 -30 -24 9 -5 16 -22 16 -38 0 -17 5 -30 10 -30 6 0 10 -11 10
-25 0 -14 -4 -25 -9 -25 -5 0 -12 -11 -15 -25 -10 -40 -26 -29 -25 18 2 116
-9 157 -41 157 -12 0 -20 -7 -20 -18 0 -9 -10 -22 -22 -27 -13 -6 -27 -20 -33
-32 -7 -17 -18 -23 -43 -23 -23 0 -40 -8 -57 -26 -17 -18 -31 -25 -45 -21 -24
6 -80 -10 -80 -23 0 -5 -17 -16 -39 -26 -30 -13 -42 -26 -51 -55 -10 -28 -10
-42 -2 -52 8 -10 4 -21 -17 -46 -17 -20 -34 -31 -40 -26 -7 4 -23 -1 -37 -10
-21 -13 -28 -14 -40 -4 -13 10 -17 10 -23 0 -10 -16 -62 -43 -69 -36 -3 3 2
19 11 34 9 16 14 37 11 46 -4 9 2 32 12 50 18 33 18 35 0 48 -16 12 -16 14 -2
26 20 17 11 31 -20 31 -19 0 -24 -5 -24 -25 0 -26 -15 -34 -23 -12 -3 6 -6 2
-6 -10 -1 -18 -7 -23 -29 -23 -17 0 -46 -16 -82 -45 -30 -25 -65 -45 -78 -45
-31 0 -62 17 -62 35 0 9 -10 15 -24 15 -14 0 -27 4 -31 10 -3 5 13 7 43 3 40
-4 50 -2 55 12 4 9 5 20 2 25 -3 4 13 6 35 3 l40 -6 0 46 c0 40 -4 48 -27 59
-14 7 -28 19 -31 26 -6 20 30 14 55 -10 22 -21 23 -21 23 -2 0 11 -5 25 -12
32 -9 9 -7 17 10 35 14 15 19 30 15 45 -4 18 -1 22 16 22 28 0 26 8 -14 53
-28 32 -37 37 -53 28 -11 -6 -22 -20 -25 -31 -4 -17 -3 -19 8 -10 10 9 19 6
34 -9 25 -25 26 -31 6 -31 -8 0 -15 5 -15 10 0 6 -7 10 -16 10 -9 0 -14 -8
-13 -17 3 -31 0 -34 -21 -23 -11 6 -20 19 -20 29 0 27 -47 37 -71 15 -15 -14
-21 -14 -34 -4 -10 8 -15 9 -15 1 0 -6 -5 -11 -11 -11 -5 0 -7 5 -4 10 4 6 2
17 -4 23 -7 9 -6 21 4 40 8 15 10 27 4 27 -5 0 -9 -4 -9 -8 0 -5 -21 -19 -47
-32 -27 -13 -52 -29 -56 -37 -4 -7 -18 -13 -29 -13 l-21 0 20 23 c11 12 23 34
27 50 4 15 13 27 22 27 8 0 27 13 40 30 14 16 30 29 35 27 10 -2 151 135 144
141 -2 2 -20 -2 -40 -9 -33 -12 -38 -12 -50 4 -18 24 -23 21 -27 -15z m-78
-113 c0 -8 -7 -15 -15 -15 -9 0 -12 6 -9 15 4 8 10 15 15 15 5 0 9 -7 9 -15z
m-193 -144 c-8 -36 -2 -41 33 -31 33 10 42 4 30 -19 -4 -9 -13 -29 -19 -44
-12 -32 -39 -46 -51 -27 -6 9 -10 8 -18 -6 -10 -18 -11 -18 -18 0 -4 12 -1 30
8 46 9 17 12 31 6 40 -6 9 -6 26 1 43 14 37 35 36 28 -2z m-515 -19 c3 -10 1
-29 -4 -42 l-10 -25 -9 23 c-4 12 -13 22 -19 22 -8 0 -8 6 0 20 13 25 36 26
42 2z m338 -63 c0 -11 -4 -17 -10 -14 -5 3 -10 13 -10 21 0 8 5 14 10 14 6 0
10 -9 10 -21z m1684 -30 c31 -18 56 -62 56 -101 0 -17 -28 -7 -33 12 -3 11
-14 20 -25 20 -16 0 -20 -9 -26 -56 -3 -30 -4 -59 -1 -64 3 -4 -2 -11 -11 -14
-25 -10 -34 -7 -34 11 0 9 -7 24 -15 33 -15 16 -28 144 -17 155 12 12 32 -21
32 -52 0 -50 18 -31 26 27 4 28 8 50 10 50 1 0 19 -9 38 -21z m-224 -8 c0 -11
-4 -23 -10 -26 -5 -3 -10 -15 -10 -26 0 -10 -4 -19 -10 -19 -13 0 -13 46 0 71
14 25 30 25 30 0z m-1130 -10 c0 -14 -18 -23 -30 -16 -6 4 -8 11 -5 16 8 12
35 12 35 0z m1501 -66 c-4 -80 -15 -120 -34 -123 -19 -4 -25 32 -6 43 6 5 8
26 4 60 -8 59 -2 78 23 73 13 -2 16 -14 13 -53z m-1731 15 c0 -22 -1 -23 -24
-14 -13 5 -14 9 -5 20 16 20 29 17 29 -6z m2035 -46 c10 -14 32 -32 49 -41 29
-15 29 -16 10 -29 -10 -8 -27 -21 -37 -29 -9 -8 -22 -15 -27 -15 -17 0 -11 38
8 49 15 10 15 13 -10 32 -16 11 -28 29 -28 40 0 26 12 24 35 -7z m235 22 c0
-3 -4 -8 -10 -11 -5 -3 -10 -1 -10 4 0 6 5 11 10 11 6 0 10 -2 10 -4z m-2080
-36 c9 -16 15 -18 30 -10 26 14 39 -9 14 -24 -40 -23 -137 -33 -226 -22 -26 3
-50 1 -53 -4 -3 -6 -14 -10 -24 -10 -13 0 -18 9 -19 36 -1 32 0 34 14 23 18
-15 236 -20 250 -6 4 4 -1 14 -12 22 -17 13 -17 14 -2 15 10 0 22 -9 28 -20z
m1690 -85 c0 -26 -6 -48 -15 -55 -8 -7 -15 -19 -15 -27 0 -22 34 -11 45 15 14
31 30 22 30 -19 0 -33 -1 -34 -50 -42 -32 -5 -56 -5 -67 2 -13 8 -18 6 -23 -8
-3 -10 -3 -26 1 -35 3 -9 0 -24 -7 -33 -13 -14 -15 -13 -19 13 -4 23 -11 30
-33 32 -15 2 -27 5 -27 8 0 2 16 20 35 38 28 28 36 31 46 20 20 -24 38 -15 48
24 15 56 16 94 2 120 -19 36 -2 48 25 17 17 -20 24 -40 24 -70z m-205 75 c3
-5 1 -10 -4 -10 -6 0 -11 5 -11 10 0 6 2 10 4 10 3 0 8 -4 11 -10z m267 4 c7
-7 -24 -64 -34 -64 -10 0 -10 32 -2 54 6 16 25 21 36 10z m-1622 -29 c0 -8 -6
-15 -14 -15 -8 0 -16 7 -20 15 -4 10 1 15 14 15 11 0 20 -7 20 -15z m1686 0
c9 -21 -34 -85 -57 -85 -25 0 -24 5 6 57 27 45 42 53 51 28z m-2673 -36 c8 31
24 26 32 -9 6 -26 9 -29 21 -19 24 20 33 -2 21 -53 -13 -56 -23 -60 -41 -18
-9 23 -15 27 -24 18 -7 -7 -12 -19 -13 -27 0 -9 -9 9 -20 39 -11 32 -16 66
-13 80 l7 25 12 -29 c11 -27 12 -27 18 -7z m1022 -9 c0 -9 -11 -16 -27 -18
-30 -4 -36 6 -16 26 16 16 43 11 43 -8z m1785 5 c0 -18 -22 -43 -67 -73 -39
-27 -49 -28 -56 -2 -3 13 0 20 9 20 8 0 17 7 20 15 4 8 16 15 28 15 12 0 27 9
34 20 15 24 32 26 32 5z m-2415 -43 c-9 -9 -35 8 -35 24 0 16 2 16 20 -1 11
-10 18 -20 15 -23z m95 19 c0 -6 -4 -13 -10 -16 -5 -3 -10 1 -10 9 0 9 5 16
10 16 6 0 10 -4 10 -9z m1836 -1 c8 0 14 -9 14 -21 0 -15 -4 -19 -19 -14 -11
3 -22 1 -26 -5 -5 -8 -12 -4 -22 10 -13 19 -13 24 -2 31 8 5 20 7 27 4 8 -3
20 -5 28 -5z m-106 -26 c0 -8 -5 -12 -10 -9 -6 4 -8 11 -5 16 9 14 15 11 15
-7z m703 -18 c17 -13 23 -36 9 -36 -8 0 -42 37 -42 45 0 9 15 5 33 -9z m-723
-15 c0 -6 -4 -13 -10 -16 -5 -3 -10 1 -10 9 0 9 5 16 10 16 6 0 10 -4 10 -9z
m470 -5 c0 -7 -9 -25 -20 -39 -11 -13 -31 -48 -45 -76 -15 -28 -31 -51 -37
-51 -5 0 -23 -11 -40 -25 -34 -28 -46 -31 -54 -11 -9 23 48 93 99 121 38 22
47 31 47 54 0 15 3 31 7 34 12 12 43 7 43 -7z m-1308 -45 c5 -18 7 -40 4 -48
-9 -23 -26 -5 -26 27 0 16 -4 32 -10 35 -16 10 -11 27 7 23 9 -2 21 -18 25
-37z m1523 19 c3 -5 1 -10 -4 -10 -6 0 -11 5 -11 10 0 6 2 10 4 10 3 0 8 -4
11 -10z m-616 -16 c19 -14 27 -14 47 -3 18 9 27 10 35 2 14 -14 2 -35 -19 -32
-10 1 -25 -1 -34 -5 -33 -15 -63 -3 -66 27 -4 31 4 34 37 11z m530 -18 c13
-23 11 -68 -4 -143 -7 -34 -29 -47 -23 -15 4 28 -11 45 -28 31 -11 -9 -14 -8
-14 5 0 9 4 24 9 34 5 9 15 38 23 65 7 26 15 47 18 47 4 0 12 -11 19 -24z
m274 -16 c6 -24 -11 -26 -38 -6 -16 12 -17 16 -6 30 16 19 36 8 44 -24z m-79
-54 c-21 -15 -30 -14 -19 3 3 6 14 11 23 11 13 0 13 -2 -4 -14z m-1594 -27
c33 -25 173 -69 219 -69 45 0 66 -13 57 -35 -5 -13 -14 -16 -38 -13 -60 9
-154 -45 -118 -67 6 -3 10 -13 10 -21 0 -12 -8 -10 -41 6 -22 12 -53 20 -67
18 -23 -3 -27 1 -30 25 -2 19 1 27 12 27 34 0 24 21 -18 39 -24 11 -54 29 -64
39 -11 11 -28 22 -39 24 -30 6 -21 29 17 43 40 14 64 10 100 -16z m900 -16 c0
-7 -4 -13 -10 -13 -5 0 -10 12 -10 28 0 21 2 24 10 12 5 -8 10 -21 10 -27z
m-295 7 c14 -1 9 -6 -19 -20 -43 -22 -76 -26 -76 -10 0 6 9 10 21 10 13 0 23
8 26 21 4 14 9 17 16 10 6 -6 20 -11 32 -11z m-950 -26 c14 -9 31 -14 39 -11
7 3 22 0 32 -7 11 -8 33 -17 51 -20 36 -8 49 -32 30 -55 -8 -9 -12 -22 -10
-28 3 -8 -5 -13 -20 -13 -19 0 -24 4 -21 18 2 9 0 24 -6 32 -8 12 -13 13 -30
3 -24 -16 -30 -16 -30 -2 0 17 -26 39 -61 51 -26 9 -33 8 -47 -7 -16 -17 -16
-17 6 -12 16 4 28 -2 42 -20 10 -13 32 -28 47 -32 33 -9 44 -47 17 -58 -12 -4
-25 2 -41 21 -19 22 -24 24 -29 12 -9 -23 -52 -19 -99 7 -43 25 -63 64 -26 52
15 -5 30 4 63 39 48 50 58 53 93 30z m1270 -4 c4 -6 14 -9 23 -8 9 2 18 -5 20
-14 3 -15 -4 -18 -42 -18 -25 0 -46 -4 -46 -10 0 -5 -7 -10 -15 -10 -8 0 -15
2 -15 4 0 2 -3 11 -6 20 -4 11 0 16 14 16 11 0 25 7 32 15 15 18 26 19 35 5z
m99 -15 c-4 -8 -10 -15 -15 -15 -5 0 -9 7 -9 15 0 8 7 15 15 15 9 0 12 -6 9
-15z m276 -32 c0 -7 -7 -13 -15 -13 -15 0 -21 31 -8 43 8 8 23 -12 23 -30z
m-820 7 c-6 -11 -15 -18 -21 -14 -6 4 -6 11 2 20 17 21 31 17 19 -6z m328 4
c29 -8 22 -30 -9 -27 -13 1 -34 0 -46 -3 -20 -4 -21 -7 -11 -24 7 -10 10 -21
8 -24 -11 -10 -62 8 -67 23 -2 9 -9 24 -14 33 -5 10 -9 20 -9 23 0 7 120 6
148 -1z m-901 -24 c-4 -17 0 -20 30 -20 45 0 40 -24 -6 -28 -20 -2 -43 -14
-57 -29 -29 -31 -43 -24 -20 9 20 29 20 48 0 48 -8 0 -12 5 -8 11 4 8 9 8 17
0 16 -16 24 -14 30 9 3 11 8 20 12 20 4 0 5 -9 2 -20z m1313 -14 c0 -3 -4 -8
-10 -11 -5 -3 -10 -1 -10 4 0 6 5 11 10 11 6 0 10 -2 10 -4z m-616 -45 c3 -5
-5 -16 -17 -24 -21 -14 -25 -13 -47 3 -22 17 -23 18 -4 23 33 8 63 7 68 -2z
m-674 -31 c0 -5 -7 -10 -16 -10 -8 0 -12 5 -9 10 3 6 10 10 16 10 5 0 9 -4 9
-10z m-573 -67 c-3 -10 -5 -2 -5 17 0 19 2 27 5 18 2 -10 2 -26 0 -35z m2703
-10 c0 -17 -4 -35 -10 -38 -6 -4 -10 14 -10 47 0 38 3 49 10 38 5 -8 10 -29
10 -47z m-2173 31 c-3 -3 -12 -4 -19 -1 -8 3 -5 6 6 6 11 1 17 -2 13 -5z
m1653 -21 c0 -20 -3 -24 -11 -16 -7 7 -9 19 -6 27 10 24 17 19 17 -11z m20
-53 c0 -5 -4 -10 -10 -10 -5 0 -10 5 -10 10 0 6 5 10 10 10 6 0 10 -4 10 -10z
m-1445 -24 c43 -15 58 -35 28 -38 -33 -2 -68 3 -77 13 -6 5 -23 9 -38 9 -27 0
-35 9 -21 23 11 11 65 8 108 -7z m219 -1 c-7 -16 -39 -21 -48 -6 -8 12 4 21
30 21 17 0 22 -4 18 -15z m116 1 c0 -8 -7 -17 -16 -20 -13 -5 -14 -9 -5 -20
16 -20 -3 -30 -29 -16 -26 14 -25 35 2 54 28 20 48 20 48 2z m-1035 -79 c0
-40 4 -87 9 -106 7 -27 6 -33 -5 -29 -8 3 -18 22 -22 44 -4 21 -11 52 -14 67
-6 30 15 112 26 101 3 -3 6 -38 6 -77z m1173 53 c-11 -34 -30 -50 -36 -32 -5
15 -34 16 -49 1 -8 -8 -14 -6 -22 9 -14 26 -6 32 43 32 23 0 48 5 56 10 8 5
16 10 17 10 1 0 -3 -14 -9 -30z m1407 -16 c4 -22 2 -41 -4 -47 -6 -6 -11 -19
-11 -29 0 -10 -3 -18 -7 -18 -5 0 -9 29 -10 65 -2 50 0 65 11 65 8 0 17 -15
21 -36z m-1985 -55 c0 -5 -4 -9 -10 -9 -5 0 -10 7 -10 16 0 8 5 12 10 9 6 -3
10 -10 10 -16z m1430 -12 c-1 -25 -37 -60 -55 -53 -14 5 -16 9 -7 18 7 7 12
20 12 29 0 10 8 19 18 22 21 4 32 -1 32 -16z m-220 3 c0 -5 -4 -10 -10 -10 -5
0 -10 5 -10 10 0 6 5 10 10 10 6 0 10 -4 10 -10z m-710 -18 c0 -4 -21 -14 -46
-21 -39 -12 -47 -12 -55 0 -16 25 -10 29 46 29 30 0 55 -4 55 -8z m850 -1 c0
-5 -6 -14 -14 -20 -10 -9 -15 -8 -19 3 -3 8 -3 17 0 20 9 9 33 7 33 -3z
m-1660 -47 c0 -8 -4 -12 -10 -9 -5 3 -10 13 -10 21 0 8 5 12 10 9 6 -3 10 -13
10 -21z m-65 -4 c3 -5 1 -10 -4 -10 -6 0 -11 5 -11 10 0 6 2 10 4 10 3 0 8 -4
11 -10z m2345 -45 c0 -19 -4 -35 -10 -35 -11 0 -13 30 -4 54 10 25 14 19 14
-19z m-2493 -7 c-3 -8 -6 -5 -6 6 -1 11 2 17 5 13 3 -3 4 -12 1 -19z m153 7
c0 -8 -4 -15 -10 -15 -5 0 -10 7 -10 15 0 8 5 15 10 15 6 0 10 -7 10 -15z
m2120 -25 c0 -5 -9 -14 -20 -20 -22 -12 -23 -10 -14 14 7 17 34 22 34 6z m96
-63 c2 -55 -20 -107 -37 -90 -18 18 -10 130 11 143 21 13 25 5 26 -53z m-2356
32 c0 -11 -4 -17 -10 -14 -5 3 -10 13 -10 21 0 8 5 14 10 14 6 0 10 -9 10 -21z
m160 5 c0 -8 -5 -12 -10 -9 -6 4 -8 11 -5 16 9 14 15 11 15 -7z m-930 -299 c0
-8 -4 -15 -10 -15 -5 0 -10 7 -10 15 0 8 5 15 10 15 6 0 10 -7 10 -15z m-90
-174 c0 -17 -12 -41 -21 -41 -10 0 -12 33 -2 43 9 10 23 9 23 -2z m-40 -83 c0
-16 -3 -19 -11 -11 -6 6 -8 16 -5 22 11 17 16 13 16 -11z m-97 -24 c9 -10 -14
-64 -28 -64 -21 0 -26 16 -14 44 12 25 29 33 42 20z m127 -33 c0 -19 -35 -71
-48 -71 -20 0 -26 29 -12 56 13 23 60 35 60 15z m50 -45 c0 -8 -4 -18 -10 -21
-5 -3 -10 3 -10 14 0 12 5 21 10 21 6 0 10 -6 10 -14z m-118 -133 c-3 -16 -11
-37 -18 -48 -8 -11 -14 -27 -14 -37 0 -22 -20 -34 -30 -18 -9 15 1 53 26 97
23 41 43 43 36 6z m3588 7 c0 -4 -62 -11 -137 -15 -76 -4 -146 -11 -156 -17
-10 -5 -26 -7 -35 -3 -13 5 -11 10 13 25 26 17 47 20 173 19 78 -1 142 -5 142
-9z m-3670 -45 c0 -8 -4 -15 -10 -15 -5 0 -10 7 -10 15 0 8 5 15 10 15 6 0 10
-7 10 -15z m-350 -26 c0 -11 -4 -18 -10 -14 -5 3 -7 12 -3 20 7 21 13 19 13
-6z m420 -89 c0 -11 -6 -20 -14 -20 -9 0 -12 7 -9 20 3 11 9 20 14 20 5 0 9
-9 9 -20z m-87 -82 c8 -28 -9 -48 -39 -48 -26 0 -32 17 -9 26 8 3 17 14 20 25
8 25 21 24 28 -3z m24 -92 c-4 -9 -11 -16 -17 -16 -11 0 -14 33 -3 43 11 11
26 -10 20 -27z m-217 -123 c0 -5 -17 -26 -37 -47 -35 -38 -37 -38 -62 -23 -39
24 -34 50 12 58 20 3 40 9 44 12 9 9 43 9 43 0z m2559 -1178 c50 -40 45 -39
71 -23 26 17 36 4 21 -28 -9 -21 -14 -24 -26 -14 -11 9 -19 2 -44 -42 -17 -29
-31 -56 -31 -60 0 -5 -9 -8 -19 -8 -11 0 -23 -4 -26 -10 -3 -5 -14 -10 -24
-10 -10 0 -24 -7 -31 -15 -16 -19 -63 -19 -100 0 -25 13 -28 18 -20 43 4 16
19 41 34 55 14 14 26 33 26 42 0 26 86 104 115 105 6 0 30 -16 54 -35z m261
-383 c61 -36 110 -74 110 -84 0 -4 -15 -8 -33 -8 -18 0 -38 -5 -45 -12 -9 -9
-12 -8 -12 4 0 25 -17 31 -42 14 -14 -10 -27 -12 -38 -6 -15 8 -271 -19 -370
-39 -25 -6 -48 -6 -53 -2 -10 10 58 63 139 107 68 37 68 37 159 31 71 -5 94
-3 109 8 25 19 23 19 76 -13z m-15 -129 c38 -18 75 -80 75 -124 0 -28 -45 -53
-116 -65 -37 -5 -43 -3 -68 27 -25 29 -27 38 -21 78 7 48 27 78 60 92 28 11
30 11 70 -8z m-199 -48 c26 -18 48 -69 40 -91 -5 -13 -14 -15 -43 -9 -56 10
-73 23 -73 52 0 28 25 63 44 63 6 0 21 -7 32 -15z m386 -18 c4 -7 8 -27 8 -44
0 -31 -2 -33 -34 -33 -19 0 -43 8 -55 18 l-21 17 20 33 c18 29 25 33 48 27 15
-4 30 -12 34 -18z m98 -702 c0 -8 -4 -15 -10 -15 -5 0 -10 7 -10 15 0 8 5 15
10 15 6 0 10 -7 10 -15z m-36 -137 c7 -12 6 -25 -3 -44 -10 -22 -14 -25 -22
-13 -5 7 -9 29 -9 47 0 35 15 39 34 10z m-683 -101 c-10 -9 -11 -8 -5 6 3 10
9 15 12 12 3 -3 0 -11 -7 -18z m-98 -41 c5 -15 7 -30 4 -32 -10 -11 -47 17
-47 35 0 41 29 39 43 -3z m-313 4 c0 -5 -4 -10 -10 -10 -5 0 -10 5 -10 10 0 6
5 10 10 10 6 0 10 -4 10 -10z m842 -132 c5 -76 -5 -111 -30 -106 -20 4 -29 45
-13 61 6 6 11 33 11 59 0 35 4 48 14 48 10 0 15 -17 18 -62z m-442 28 c0 -8
-4 -18 -10 -21 -5 -3 -10 3 -10 14 0 12 5 21 10 21 6 0 10 -6 10 -14z m570
-67 c0 -5 -4 -9 -10 -9 -5 0 -10 7 -10 16 0 8 5 12 10 9 6 -3 10 -10 10 -16z
m-360 -21 c0 -23 -3 -29 -11 -21 -6 6 -8 20 -4 32 9 30 15 26 15 -11z"/>
<path d="M5350 8530 c0 -5 5 -10 10 -10 6 0 10 5 10 10 0 6 -4 10 -10 10 -5 0
-10 -4 -10 -10z"/>
<path d="M5790 9359 c0 -5 5 -7 10 -4 6 3 10 8 10 11 0 2 -4 4 -10 4 -5 0 -10
-5 -10 -11z"/>
<path d="M5435 9344 c-9 -9 -13 -19 -10 -22 3 -3 15 4 28 16 12 12 16 22 10
22 -6 0 -19 -7 -28 -16z"/>
<path d="M5747 9344 c-8 -9 36 -44 46 -37 5 3 -1 14 -12 24 -22 21 -25 22 -34
13z"/>
<path d="M5976 9334 c-4 -9 -5 -17 -4 -18 2 -1 14 -7 27 -14 33 -19 51 0 26
28 -22 24 -41 26 -49 4z"/>
<path d="M6060 9291 c0 -11 4 -21 9 -21 18 0 21 18 6 30 -13 10 -15 9 -15 -9z"/>
<path d="M5836 9293 c-11 -11 -6 -23 9 -23 8 0 15 4 15 9 0 13 -16 22 -24 14z"/>
<path d="M6273 9288 c-40 -13 -43 -28 -5 -28 27 0 52 15 52 32 0 10 -5 9 -47
-4z"/>
<path d="M4410 9244 c0 -3 7 -12 15 -21 20 -19 32 -9 15 12 -12 15 -30 20 -30
9z"/>
<path d="M5816 9234 c-4 -9 -5 -18 -4 -18 60 -34 104 -33 122 3 l15 28 -63 2
c-51 1 -65 -2 -70 -15z"/>
<path d="M6335 9240 c4 -6 11 -8 16 -5 14 9 11 15 -7 15 -8 0 -12 -5 -9 -10z"/>
<path d="M5971 9231 c-10 -7 -11 -16 -4 -37 8 -23 16 -30 42 -32 18 -2 39 2
46 8 17 14 38 3 31 -16 -3 -7 -1 -16 4 -19 6 -4 10 1 10 11 0 9 8 22 17 29 16
12 13 15 -25 31 -23 10 -42 22 -42 26 0 11 -62 10 -79 -1z"/>
<path d="M6641 9226 c-16 -19 -11 -29 8 -17 7 5 12 14 9 21 -3 9 -8 7 -17 -4z"/>
<path d="M5626 9195 c-9 -19 -21 -37 -26 -40 -13 -8 -13 -35 0 -35 6 0 10 7
10 16 0 9 11 27 25 40 14 13 25 30 25 39 0 26 -17 17 -34 -20z"/>
<path d="M6558 9188 l-26 -21 29 -24 c21 -18 28 -31 24 -44 -5 -14 -1 -19 14
-19 23 0 27 10 10 27 -8 8 3 13 40 18 41 6 51 11 51 26 0 13 -7 19 -23 19 -13
0 -32 9 -42 20 -23 25 -43 25 -77 -2z"/>
<path d="M5742 9179 c2 -7 10 -15 17 -17 8 -3 12 1 9 9 -2 7 -10 15 -17 17 -8
3 -12 -1 -9 -9z"/>
<path d="M5935 9151 c-3 -5 -1 -12 4 -15 5 -3 11 1 15 9 6 16 -9 21 -19 6z"/>
<path d="M6335 9140 c-3 -5 -1 -10 4 -10 6 0 11 5 11 10 0 6 -2 10 -4 10 -3 0
-8 -4 -11 -10z"/>
<path d="M6008 9113 c7 -3 16 -2 19 1 4 3 -2 6 -13 5 -11 0 -14 -3 -6 -6z"/>
<path d="M6060 9090 c0 -11 5 -20 10 -20 6 0 10 9 10 20 0 11 -4 20 -10 20 -5
0 -10 -9 -10 -20z"/>
<path d="M5550 9090 c0 -5 -13 -16 -30 -25 -16 -9 -30 -20 -30 -25 0 -18 17
-10 56 25 28 25 34 35 22 35 -10 0 -18 -4 -18 -10z"/>
<path d="M5620 9070 c0 -5 5 -10 10 -10 6 0 10 5 10 10 0 6 -4 10 -10 10 -5 0
-10 -4 -10 -10z"/>
<path d="M4070 9053 c0 -25 26 -73 39 -71 23 5 23 23 1 51 -20 25 -40 35 -40
20z"/>
<path d="M5325 9030 c-3 -5 -1 -10 4 -10 6 0 11 5 11 10 0 6 -2 10 -4 10 -3 0
-8 -4 -11 -10z"/>
<path d="M6867 9033 c-14 -13 -6 -23 19 -23 22 0 25 2 14 15 -14 16 -23 19
-33 8z"/>
<path d="M5766 9004 c-4 -10 -1 -14 6 -12 15 5 23 28 10 28 -5 0 -13 -7 -16
-16z"/>
<path d="M5690 8950 c0 -11 5 -20 10 -20 6 0 10 9 10 20 0 11 -4 20 -10 20 -5
0 -10 -9 -10 -20z"/>
<path d="M5323 8911 c-20 -16 -20 -20 -7 -25 10 -4 22 1 30 11 27 36 13 44
-23 14z"/>
<path d="M4148 8879 c-28 -16 -23 -58 8 -69 14 -6 27 -10 30 -10 6 0 5 56 -2
74 -7 18 -12 19 -36 5z"/>
<path d="M5620 8870 c-6 -11 -17 -20 -24 -20 -16 0 -19 -49 -4 -67 5 -6 8 -18
6 -25 -2 -7 2 -13 7 -13 6 0 9 15 7 32 -2 21 4 43 17 62 12 16 21 34 21 40 0
18 -19 12 -30 -9z"/>
<path d="M5270 8865 c0 -8 5 -15 10 -15 6 0 10 7 10 15 0 8 -4 15 -10 15 -5 0
-10 -7 -10 -15z"/>
<path d="M7340 8820 c0 -5 5 -10 11 -10 5 0 7 5 4 10 -3 6 -8 10 -11 10 -2 0
-4 -4 -4 -10z"/>
<path d="M7170 8805 c0 -14 46 -33 56 -22 8 7 -26 37 -42 37 -8 0 -14 -7 -14
-15z"/>
<path d="M7216 8762 c-3 -6 -1 -14 5 -17 15 -10 25 3 12 16 -7 7 -13 7 -17 1z"/>
<path d="M7132 8725 c6 -14 19 -25 29 -25 31 0 30 18 -2 34 -41 20 -41 21 -27
-9z"/>
<path d="M7180 8656 c0 -10 9 -16 21 -16 24 0 21 23 -4 28 -10 2 -17 -3 -17
-12z"/>
<path d="M7457 8663 c-13 -13 -7 -42 12 -52 10 -6 22 -22 25 -36 4 -14 11 -25
16 -25 11 0 6 17 -22 78 -21 45 -21 45 -31 35z"/>
<path d="M7620 8572 c0 -11 9 -27 20 -37 24 -22 25 -14 5 25 -18 34 -25 38
-25 12z"/>
<path d="M7532 8519 c-23 -37 -15 -56 26 -62 55 -7 62 8 21 47 -33 33 -36 34
-47 15z"/>
<path d="M7135 8520 c3 -5 8 -10 11 -10 2 0 4 5 4 10 0 6 -5 10 -11 10 -5 0
-7 -4 -4 -10z"/>
<path d="M7671 8484 c0 -11 3 -14 6 -6 3 7 2 16 -1 19 -3 4 -6 -2 -5 -13z"/>
<path d="M7115 8449 c-9 -50 6 -72 32 -46 13 13 15 20 5 29 -7 7 -12 22 -12
35 0 38 -18 26 -25 -18z"/>
<path d="M7220 8476 c0 -9 7 -16 16 -16 9 0 14 5 12 12 -6 18 -28 21 -28 4z"/>
<path d="M7560 8406 c0 -17 27 -29 35 -16 4 6 3 15 0 20 -9 15 -35 12 -35 -4z"/>
<path d="M7633 8279 c-47 -14 -50 -28 -12 -60 37 -31 79 -38 79 -14 0 8 -7 15
-15 15 -19 0 -19 9 1 31 17 18 12 40 -9 38 -7 0 -26 -5 -44 -10z"/>
<path d="M7610 7920 c0 -16 -33 -50 -48 -50 -10 0 -12 7 -9 20 4 18 2 20 -16
14 -31 -9 -34 -14 -16 -28 16 -11 49 -93 49 -121 0 -8 6 -15 13 -15 25 0 54
29 66 68 12 35 11 45 -5 81 -17 38 -34 54 -34 31z"/>
<path d="M7447 7844 c-10 -11 -9 -54 2 -54 6 0 12 4 15 9 8 12 -8 54 -17 45z"/>
<path d="M6680 7763 c0 -7 10 -12 23 -11 12 1 31 -1 42 -5 23 -7 54 8 41 20
-13 14 -106 10 -106 -4z"/>
<path d="M7696 7719 c-17 -29 -16 -79 2 -79 7 0 32 78 32 100 0 19 -16 10 -34
-21z"/>
<path d="M4386 7674 c-4 -9 -3 -21 2 -26 12 -12 23 15 12 31 -5 9 -9 8 -14 -5z"/>
<path d="M7630 7605 c-7 -9 -10 -18 -6 -22 8 -9 56 14 56 27 0 15 -36 12 -50
-5z"/>
<path d="M4285 7560 c3 -5 8 -10 11 -10 2 0 4 5 4 10 0 6 -5 10 -11 10 -5 0
-7 -4 -4 -10z"/>
<path d="M4291 7504 c0 -11 3 -14 6 -6 3 7 2 16 -1 19 -3 4 -6 -2 -5 -13z"/>
<path d="M4437 7493 c-4 -3 -7 -11 -7 -17 0 -6 5 -5 12 2 6 6 9 14 7 17 -3 3
-9 2 -12 -2z"/>
<path d="M4236 7335 c-3 -8 -1 -15 4 -15 6 0 10 7 10 15 0 8 -2 15 -4 15 -2 0
-6 -7 -10 -15z"/>
<path d="M7730 7249 c0 -9 7 -22 15 -29 19 -16 19 0 0 26 -12 16 -14 16 -15 3z"/>
<path d="M4047 6926 c-21 -22 -24 -32 -16 -42 17 -20 23 -17 37 16 21 46 10
59 -21 26z"/>
<path d="M3345 6450 c-3 -5 -1 -10 4 -10 6 0 11 5 11 10 0 6 -2 10 -4 10 -3 0
-8 -4 -11 -10z"/>
<path d="M3308 6412 c-5 -25 3 -72 12 -72 8 0 20 35 20 61 0 23 -28 32 -32 11z"/>
<path d="M3590 6361 c0 -22 32 -81 40 -76 15 9 12 32 -6 60 -16 25 -34 33 -34
16z"/>
<path d="M3307 6288 c-2 -18 -2 -39 2 -46 10 -19 33 35 26 59 -10 29 -22 23
-28 -13z"/>
<path d="M3657 6185 c-36 -28 -55 -53 -85 -118 -56 -121 -66 -163 -53 -229 14
-65 43 -115 75 -129 30 -14 83 -5 115 20 l24 18 -18 49 c-10 27 -23 55 -28 61
-6 8 -3 24 10 45 14 25 28 34 54 38 32 5 35 8 47 58 l13 53 -41 73 c-56 102
-58 103 -113 61z"/>
<path d="M3302 6060 c1 -37 22 -34 26 3 2 19 -1 27 -12 27 -10 0 -14 -10 -14
-30z"/>
<path d="M3311 5996 c-8 -10 -5 -19 14 -40 14 -15 25 -30 25 -34 0 -4 9 -13
20 -20 26 -16 25 -12 -7 53 -30 59 -35 62 -52 41z"/>
<path d="M3772 5773 c-22 -4 -22 -5 9 -49 36 -53 84 -86 118 -82 40 5 35 25
-20 83 -50 53 -59 57 -107 48z"/>
<path d="M4230 5571 c0 -22 5 -43 10 -46 6 -4 10 -12 9 -18 -4 -30 2 -47 15
-47 32 0 31 53 -2 118 -22 43 -32 41 -32 -7z"/>
<path d="M4340 5585 c0 -8 5 -15 10 -15 6 0 10 7 10 15 0 8 -4 15 -10 15 -5 0
-10 -7 -10 -15z"/>
<path d="M4224 5427 c-7 -20 14 -97 28 -97 14 0 9 75 -6 96 -14 18 -15 18 -22
1z"/>
<path d="M4283 5424 c-4 -11 1 -22 13 -31 15 -11 18 -24 16 -63 -3 -32 0 -50
7 -50 6 0 12 15 12 33 3 74 -8 127 -27 127 -8 0 -17 -7 -21 -16z"/>
<path d="M3953 5273 c-21 -8 -15 -38 15 -66 32 -30 42 -27 42 14 0 53 -17 69
-57 52z"/>
<path d="M4287 5219 c-3 -12 -2 -29 2 -37 7 -13 10 -11 15 6 4 12 3 29 -2 38
-8 14 -10 13 -15 -7z"/>
<path d="M3882 5209 c2 -7 10 -15 17 -17 8 -3 12 1 9 9 -2 7 -10 15 -17 17 -8
3 -12 -1 -9 -9z"/>
<path d="M4410 4985 c0 -8 5 -15 10 -15 6 0 10 7 10 15 0 8 -4 15 -10 15 -5 0
-10 -7 -10 -15z"/>
<path d="M4488 4975 c-2 -6 -4 -49 -4 -97 2 -89 -4 -105 -24 -68 -17 32 -30
23 -30 -18 0 -39 16 -62 52 -75 14 -5 16 -13 11 -39 l-6 -33 22 27 c17 21 22
42 23 88 0 34 -4 66 -11 73 -16 16 -13 27 8 27 15 0 18 5 14 23 -3 12 -11 28
-17 36 -6 8 -16 25 -22 40 -5 14 -13 21 -16 16z"/>
<path d="M5251 4914 c0 -11 3 -14 6 -6 3 7 2 16 -1 19 -3 4 -6 -2 -5 -13z"/>
<path d="M5230 4749 c0 -5 5 -7 10 -4 6 3 10 8 10 11 0 2 -4 4 -10 4 -5 0 -10
-5 -10 -11z"/>
<path d="M4535 4630 c3 -5 8 -10 11 -10 2 0 4 5 4 10 0 6 -5 10 -11 10 -5 0
-7 -4 -4 -10z"/>
<path d="M4627 4610 c-5 -21 -31 -27 -42 -10 -3 6 -12 10 -20 10 -11 0 -8 -12
11 -50 14 -27 28 -72 31 -100 6 -49 18 -64 29 -35 9 22 19 18 33 -11 8 -19 9
-30 1 -40 -7 -7 -10 -23 -7 -36 3 -21 5 -19 20 14 22 49 22 86 0 90 -12 2 -19
14 -20 33 -4 53 -19 144 -25 150 -3 3 -8 -3 -11 -15z"/>
<path d="M3600 4582 c0 -16 29 -65 90 -152 14 -19 27 -37 30 -40 3 -3 41 -48
85 -100 79 -93 77 -99 -10 -35 -57 41 -270 154 -330 175 l-60 20 -16 -22 c-10
-12 -20 -38 -23 -58 -4 -19 -9 -49 -12 -66 -3 -18 -15 -36 -25 -40 -18 -9 -18
-11 7 -46 15 -21 35 -40 45 -43 13 -4 19 -16 19 -37 0 -23 -4 -29 -16 -24 -35
14 -60 16 -74 6 -19 -12 -4 -39 33 -60 22 -13 30 -13 48 -2 19 12 20 11 14 -7
-5 -16 -1 -22 22 -27 15 -4 42 -17 58 -30 17 -13 48 -31 70 -41 22 -10 50 -28
62 -40 13 -13 41 -26 64 -29 22 -4 53 -17 69 -30 18 -16 34 -22 46 -17 12 4
15 3 10 -5 -4 -7 5 -23 23 -38 30 -25 61 -76 61 -101 0 -7 5 -13 11 -13 7 0
23 -12 37 -27 14 -16 36 -27 51 -28 16 0 26 -6 26 -15 0 -8 4 -21 9 -29 5 -8
4 -16 -4 -21 -7 -4 -10 -15 -7 -24 8 -21 -14 -33 -25 -12 -9 16 -58 23 -58 8
0 -9 70 -42 88 -42 6 0 23 -7 39 -15 15 -8 75 -37 133 -65 148 -70 292 -153
385 -219 70 -50 66 -47 106 -81 41 -34 63 -32 78 8 l9 27 1 -32 c1 -17 -3 -35
-9 -38 -5 -3 -10 -11 -10 -18 0 -8 3 -8 12 1 17 17 24 15 42 -13 16 -25 16
-27 -4 -43 l-20 -17 37 -55 c20 -30 42 -59 48 -65 7 -5 25 -28 41 -50 16 -22
43 -56 61 -75 17 -19 44 -53 58 -75 15 -21 59 -76 99 -121 39 -44 89 -102 111
-128 40 -47 245 -209 254 -200 3 2 -1 10 -7 16 -7 7 -12 18 -12 25 0 7 43 -29
96 -81 76 -74 96 -99 91 -115 -4 -16 15 -43 75 -111 44 -49 84 -90 88 -90 4 0
31 -21 59 -46 28 -25 51 -43 51 -39 0 4 -16 30 -35 56 -19 27 -35 53 -35 58 0
5 -4 11 -9 13 -5 2 -27 33 -50 71 -40 66 -51 110 -31 122 6 3 10 11 10 18 0 8
-3 8 -12 -1 -18 -18 -48 -15 -55 6 -4 9 -15 23 -25 30 -10 7 -18 24 -18 36 0
13 -6 28 -12 34 -13 10 -18 12 -39 12 -6 0 -8 7 -5 17 4 10 -2 25 -16 40 -12
13 -31 38 -42 57 -12 19 -58 89 -103 156 -46 67 -83 123 -83 126 0 2 -7 12
-14 21 -33 40 -156 211 -156 217 0 3 4 6 8 6 14 0 234 -130 325 -192 109 -74
128 -79 145 -38 16 36 7 146 -12 153 -17 7 -82 118 -99 170 -10 29 -13 77 -10
157 3 90 0 124 -13 158 -19 51 -15 59 14 32 12 -11 23 -20 25 -20 13 0 28 64
23 95 -5 24 -2 42 9 59 15 22 14 25 -8 52 -13 16 -30 47 -38 69 -19 57 -38 77
-68 72 -27 -5 -101 30 -101 48 0 6 5 16 12 23 8 8 5 20 -13 46 -20 30 -26 33
-39 21 -8 -7 -35 -15 -60 -17 -43 -3 -45 -5 -48 -35 -4 -38 -17 -41 -49 -11
-21 20 -34 14 -14 -7 4 -6 11 -21 14 -35 5 -21 2 -25 -20 -27 -31 -1 -224 132
-363 251 -258 222 -301 254 -259 195 13 -19 37 -45 54 -59 57 -47 135 -123
135 -131 0 -5 20 -27 45 -50 25 -23 45 -47 45 -54 0 -8 11 -22 24 -32 28 -22
44 -73 22 -73 -8 0 -16 7 -20 15 -3 8 -12 15 -20 15 -8 0 -16 4 -18 10 -1 5
-20 16 -41 25 l-37 15 -25 -55 c-24 -51 -28 -55 -59 -55 -18 0 -39 7 -46 15
-14 17 -40 20 -40 5 0 -6 10 -21 23 -33 51 -52 77 -90 77 -113 0 -31 -25 -32
-67 -1 -34 24 -163 138 -229 202 -23 22 -64 61 -91 87 -28 26 -84 84 -124 130
-40 46 -106 120 -148 166 -41 45 -81 93 -90 106 -29 43 -172 216 -268 324 -51
56 -63 62 -63 34z m-106 -491 c18 -8 17 -10 -14 -10 -32 0 -70 17 -70 33 0 3
7 6 15 6 9 0 19 8 22 18 6 14 9 13 17 -10 5 -14 19 -31 30 -37z m168 -6 c11
-14 10 -55 -1 -55 -5 0 -12 16 -15 35 -4 19 -11 35 -16 35 -6 0 -10 5 -10 11
0 12 27 -5 42 -26z m-92 -25 c0 -5 -6 -10 -14 -10 -8 0 -18 5 -21 10 -3 6 3
10 14 10 12 0 21 -4 21 -10z m20 -50 c0 -5 -4 -10 -10 -10 -5 0 -10 5 -10 10
0 6 5 10 10 10 6 0 10 -4 10 -10z m50 -15 c0 -8 -4 -15 -10 -15 -5 0 -10 7
-10 15 0 8 5 15 10 15 6 0 10 -7 10 -15z m142 -21 c21 -15 38 -31 38 -35 0
-14 -65 -10 -104 6 -42 18 -45 28 -13 43 32 16 37 15 79 -14z m205 -86 c25
-17 32 -28 28 -43 -2 -11 -5 -30 -5 -42 0 -13 -4 -23 -10 -23 -5 0 -10 13 -10
29 0 21 -8 36 -29 50 -16 12 -34 21 -39 21 -5 0 -12 7 -16 15 -9 24 42 19 81
-7z m-152 -8 c3 -5 17 -10 31 -10 13 0 24 -4 24 -10 0 -18 -46 -11 -65 10 -10
11 -13 20 -7 20 6 0 14 -4 17 -10z m225 -140 c0 -5 -2 -10 -4 -10 -3 0 -8 5
-11 10 -3 6 -1 10 4 10 6 0 11 -4 11 -10z m108 -10 c22 -21 29 -40 14 -40 -5
0 -21 14 -35 30 -31 34 -13 42 21 10z m-230 -28 c4 -25 -13 -30 -22 -6 -9 25
-7 36 7 32 6 -3 13 -14 15 -26z m50 -31 c3 -8 -1 -12 -9 -9 -7 2 -15 10 -17
17 -3 8 1 12 9 9 7 -2 15 -10 17 -17z m772 4 c0 -8 -9 -15 -20 -15 -20 0 -26
11 -13 23 12 13 33 7 33 -8z m40 -29 c0 -3 -4 -8 -10 -11 -5 -3 -10 -1 -10 4
0 6 5 11 10 11 6 0 10 -2 10 -4z m-579 -37 c9 -19 9 -19 -13 -7 -13 7 -25 14
-27 15 -1 1 0 7 4 12 8 14 22 6 36 -20z m109 -19 c0 -5 10 -18 22 -30 26 -24
17 -26 -17 -4 -25 16 -34 44 -15 44 6 0 10 -4 10 -10z m1112 -150 c12 -11 19
-22 16 -25 -3 -3 -13 1 -21 10 -9 8 -20 15 -26 15 -6 0 -11 5 -11 10 0 16 19
12 42 -10z m-835 -175 c8 -9 13 -19 10 -22 -6 -5 -37 21 -37 31 0 10 11 6 27
-9z m43 -45 c0 -5 -4 -10 -10 -10 -5 0 -10 5 -10 10 0 6 5 10 10 10 6 0 10 -4
10 -10z m690 -760 c0 -5 -4 -10 -10 -10 -5 0 -10 5 -10 10 0 6 5 10 10 10 6 0
10 -4 10 -10z"/>
<path d="M6527 4523 c-56 -4 -59 -6 -73 -39 -8 -18 -20 -34 -28 -34 -17 0 -26
-22 -26 -63 0 -60 35 -80 140 -82 l75 -2 22 49 c16 34 30 52 50 59 38 13 80
74 64 93 -9 11 -19 12 -41 5 -21 -8 -36 -7 -59 5 -16 9 -38 15 -48 14 -10 -1
-44 -3 -76 -5z"/>
<path d="M4817 4385 c-22 -46 -13 -106 20 -139 30 -31 53 -24 53 16 0 40 17
68 40 68 14 0 20 7 20 23 0 29 -15 53 -24 38 -11 -17 -41 -13 -61 9 -24 27
-29 26 -48 -15z"/>
<path d="M5085 4290 c-3 -5 5 -12 19 -16 22 -5 23 -7 10 -32 -24 -47 6 -58 50
-17 14 13 26 28 26 33 0 9 -70 42 -90 42 -5 0 -12 -4 -15 -10z"/>
<path d="M6660 4236 c0 -9 5 -16 10 -16 6 0 10 4 10 9 0 6 -4 13 -10 16 -5 3
-10 -1 -10 -9z"/>
<path d="M5200 4210 c0 -17 37 -53 48 -46 21 13 13 31 -18 43 -16 6 -30 8 -30
3z"/>
<path d="M4926 4194 c-9 -24 -7 -64 4 -64 13 0 42 58 35 70 -9 15 -32 12 -39
-6z"/>
<path d="M5066 4151 c-21 -23 -21 -53 1 -49 17 3 37 54 23 63 -4 2 -15 -4 -24
-14z"/>
<path d="M5225 4140 c-3 -5 -1 -10 4 -10 6 0 11 5 11 10 0 6 -2 10 -4 10 -3 0
-8 -4 -11 -10z"/>
<path d="M5140 4105 c-7 -9 -10 -18 -7 -21 7 -8 47 14 47 26 0 15 -26 12 -40
-5z"/>
<path d="M5159 3911 c-20 -16 -22 -22 -11 -33 11 -11 16 -10 28 6 13 18 19 46
10 46 -2 0 -14 -9 -27 -19z"/>
<path d="M5220 3862 c-29 -24 -20 -40 20 -34 33 5 36 10 17 36 -12 17 -14 17
-37 -2z"/>
<path d="M5260 3790 c0 -15 5 -20 18 -18 9 2 17 10 17 18 0 8 -8 16 -17 18
-13 2 -18 -3 -18 -18z"/>
<path d="M5145 3690 c4 -6 11 -8 16 -5 14 9 11 15 -7 15 -8 0 -12 -5 -9 -10z"/>
<path d="M6202 3553 c-11 -21 -22 -56 -25 -78 l-6 -39 21 34 c18 29 42 120 32
120 -2 0 -12 -17 -22 -37z"/>
<path d="M6131 3384 l-23 -39 27 26 c15 15 25 33 23 40 -2 7 -14 -5 -27 -27z"/>
<path d="M6080 3315 c-7 -9 -8 -15 -2 -15 5 0 12 7 16 15 3 8 4 15 2 15 -2 0
-9 -7 -16 -15z"/>
<path d="M4770 3030 c0 -5 5 -10 11 -10 5 0 7 5 4 10 -3 6 -8 10 -11 10 -2 0
-4 -4 -4 -10z"/>
</g>
</svg>
